<?xml version="1.0" encoding="utf-8"?>
<!-- Generator: Adobe Illustrator 19.0.0, SVG Export Plug-In . SVG Version: 6.00 Build 0)  -->
<svg version="1.1" id="Layer_1" xmlns="http://www.w3.org/2000/svg" xmlns:xlink="http://www.w3.org/1999/xlink" x="0px" y="0px"
	 viewBox="0 0 640 235" style="enable-background:new 0 0 640 235;" xml:space="preserve">
<style type="text/css">
	.st0{fill:none;stroke:#F7931E;stroke-width:8;stroke-miterlimit:10;}
	.st1{fill:none;stroke:url(#XMLID_84_);stroke-width:8;stroke-miterlimit:10;}
	.st2{fill:none;stroke:url(#XMLID_85_);stroke-width:8;stroke-miterlimit:10;}
	.st3{fill:none;stroke:url(#XMLID_86_);stroke-width:8;stroke-miterlimit:10;}
	.st4{fill:none;stroke:url(#XMLID_87_);stroke-width:8;stroke-miterlimit:10;}
	.st5{fill:none;stroke:url(#XMLID_88_);stroke-width:8;stroke-miterlimit:10;}
	.st6{fill:url(#XMLID_89_);stroke:url(#XMLID_90_);stroke-width:6;stroke-miterlimit:10;}
	.st7{fill:url(#XMLID_91_);stroke:url(#XMLID_92_);stroke-miterlimit:10;}
	.st8{fill:url(#XMLID_93_);stroke:url(#XMLID_94_);stroke-miterlimit:10;}
	.st9{fill:url(#XMLID_95_);stroke:url(#XMLID_96_);stroke-miterlimit:10;}
	.st10{fill:url(#XMLID_97_);stroke:url(#XMLID_98_);stroke-miterlimit:10;}
	.st11{fill:url(#XMLID_99_);stroke:url(#XMLID_100_);stroke-miterlimit:10;}
	.st12{fill:url(#XMLID_101_);stroke:url(#XMLID_102_);stroke-miterlimit:10;}
	.st13{fill:url(#XMLID_103_);stroke:url(#XMLID_104_);stroke-miterlimit:10;}
	.st14{fill:url(#XMLID_105_);stroke:url(#XMLID_106_);stroke-miterlimit:10;}
	.st15{fill:url(#XMLID_107_);stroke:url(#XMLID_108_);stroke-miterlimit:10;}
	.st16{fill:url(#XMLID_109_);stroke:url(#XMLID_110_);stroke-miterlimit:10;}
	.st17{fill:url(#XMLID_111_);stroke:url(#XMLID_112_);stroke-miterlimit:10;}
	.st18{fill:url(#XMLID_113_);stroke:url(#XMLID_114_);stroke-miterlimit:10;}
	.st19{fill:url(#XMLID_115_);stroke:url(#XMLID_116_);stroke-miterlimit:10;}
	.st20{fill:url(#XMLID_117_);stroke:url(#XMLID_118_);stroke-miterlimit:10;}
</style>
<g id="XMLID_2_">
	<path id="XMLID_8_" class="st0" d="M150.9,49.5h-19.1H150.9z"/>
	<linearGradient id="XMLID_84_" gradientUnits="userSpaceOnUse" x1="127.4225" y1="27.3118" x2="156.4801" y2="27.3118">
		<stop  offset="0" style="stop-color:#FFFF00"/>
		<stop  offset="1" style="stop-color:#F7931E"/>
	</linearGradient>
	<polygon id="XMLID_7_" class="st1" points="151.2,49.5 142,16.1 132.7,49.5 	"/>
	<linearGradient id="XMLID_85_" gradientUnits="userSpaceOnUse" x1="-0.6977" y1="117.4531" x2="78" y2="117.4531">
		<stop  offset="0" style="stop-color:#FFFF00"/>
		<stop  offset="1" style="stop-color:#F7931E"/>
	</linearGradient>
	<polygon id="XMLID_9_" class="st2" points="74,108.2 22.1,117.5 74,126.7 	"/>
	<linearGradient id="XMLID_86_" gradientUnits="userSpaceOnUse" x1="125.962" y1="208.1437" x2="155.086" y2="208.1437">
		<stop  offset="0" style="stop-color:#FFFF00"/>
		<stop  offset="1" style="stop-color:#F7931E"/>
	</linearGradient>
	<polygon id="XMLID_10_" class="st3" points="131.3,186.5 140.5,219.1 149.8,186.5 	"/>
	<linearGradient id="XMLID_87_" gradientUnits="userSpaceOnUse" x1="202.5409" y1="119.6183" x2="632.8356" y2="119.6183">
		<stop  offset="0" style="stop-color:#FFFF00"/>
		<stop  offset="1" style="stop-color:#F7931E"/>
	</linearGradient>
	<polygon id="XMLID_11_" class="st4" points="207.1,129.6 632.7,119.3 209.4,109.6 	"/>
	<linearGradient id="XMLID_88_" gradientUnits="userSpaceOnUse" x1="68.4955" y1="118.1668" x2="213.9798" y2="118.1668">
		<stop  offset="0" style="stop-color:#FFFF00"/>
		<stop  offset="1" style="stop-color:#F7931E"/>
	</linearGradient>
	<circle id="XMLID_1_" class="st5" cx="141.2" cy="118.2" r="68.7"/>
</g>
<g id="XMLID_3_">
	<linearGradient id="XMLID_89_" gradientUnits="userSpaceOnUse" x1="21" y1="127.3799" x2="210.5359" y2="127.3799">
		<stop  offset="0" style="stop-color:#FF0000"/>
		<stop  offset="1" style="stop-color:#C1272D"/>
	</linearGradient>
	<linearGradient id="XMLID_90_" gradientUnits="userSpaceOnUse" x1="18" y1="127.3799" x2="213.5359" y2="127.3799">
		<stop  offset="0" style="stop-color:#FF0000"/>
		<stop  offset="1" style="stop-color:#C1272D"/>
	</linearGradient>
	<path id="XMLID_4_" class="st6" d="M210,179.5c0.2,0.1,0.3,0.3,0.4,0.6c0.1,0.2,0.1,0.4,0.1,0.5c0,0.7-0.8,1.1-2.5,1.1
		c-0.9,0.1-3.7,0-8.3-0.3c-4.6-0.2-7.8-0.4-9.5-0.4c-3,0-7.4,0.2-13.4,0.5c-2.2,0.1-3.8,0.2-4.7,0.1c-1.6,0-2.4-0.4-2.4-1.2
		c0-0.3,0.1-0.6,0.4-0.8c0.3-0.3,2.3-1.4,6-3.5c2.9-1.6,4.3-3,4.3-4.3c0.2-0.7,0.4-1.8,0.6-3.2c0.2-1.4,0.3-3,0.3-4.8
		c0-7.4-1.6-14.6-4.7-21.7c-4.5-10.2-12.2-19.6-22.9-28.4c-6.5-5.2-13.8-9.7-22.1-13.4c-8.3-3.7-17.5-6.8-27.8-9.3
		c-5.3,6.8-9.8,14.2-13.4,22.2c-4.9,10.7-7.3,20.7-7.3,30c0,10.2,0.3,17.5,1,21.9c1.1,7.7,3.6,14.6,7.3,20.7c2.4,3.7,6,6.9,10.8,9.6
		c2.6,1.5,5.9,2.9,10,4.4c1.1,0.4,1.7,0.9,1.7,1.4c0,0.5-0.5,0.8-1.4,1c-2.7,0.6-5.2,1.2-7.7,1.9c-2.4,0.7-5.3,1.6-8.5,2.7
		c-3.2,1.1-5.9,2.3-8.2,3.5c-1.6,0.8-3.1,1.6-4.4,2.5c-0.7,0.4-1.3,0.6-1.8,0.6c-0.8,0-1.2-0.5-1.2-1.6c0-2.1-0.1-4.5-0.4-7.1
		c-0.3-2.7-1-6.9-2.1-12.7c-1.7-6.9-3.2-13.7-4.6-20.5c-1.4-6.8-2.1-13.1-2.1-19.1c0-12.2,2.2-24.3,6.5-36.2
		c3.8-10.4,8.7-19.5,14.8-27.2c-2-0.3-4.2-0.5-6.4-0.7c-2.3-0.2-4.9-0.3-7.8-0.3c-5.3,0-10.7,0.5-16.4,1.4S51.5,91.9,47.2,94
		c-5.6,2.7-8.5,6-8.5,9.6c0,3.8,2.1,6,6.4,6.6c0.4,0.1,0.9,0.1,1.7,0.1c1.9,0,3.6-0.3,5.1-1c1.4-0.7,2.3-1.7,2.5-3
		c0.2-1.3,0.7-2,1.5-2c0.6,0,1,0.4,1.3,1.1c0.3,0.7,0.5,1.7,0.5,2.8c0,0.6-0.1,1.3-0.3,2c-0.2,0.7-0.4,1.4-0.6,2.1
		c-1.2,2.5-3.2,4.5-6.1,6.2c-2.9,1.6-6.4,2.5-10.7,2.5c-0.6,0.1-1.1,0.1-1.5,0.1c-4.9,0-9-1.3-12.4-4c-3.4-2.6-5.1-6-5.1-10.2
		c0-6.9,5.2-12.6,15.5-17.2c6.8-3,14.5-5.1,23-6.3c3-0.4,6.2-0.7,9.8-0.9c3.6-0.2,7.3-0.3,11.1-0.3c7.5,0,13.4,0.3,17.6,1
		c13.4-12.8,28.3-22.8,44.6-29.8c18.8-8.1,39.2-12.1,61.2-12.1c3.1,0,4.6,0.3,4.6,0.9c0,0.3-0.3,0.6-1,1.1c-3.1,2.5-5.1,4.7-5.9,6.7
		c-1.1,2.8-1.7,7.9-1.7,15.4v106.7c0,1.3,1.4,2.7,4.2,4.2C207.8,178.2,209.8,179.3,210,179.5z M180.4,128.9V49.6
		c-13.3,1.8-26.5,6-39.7,12.6c-7.2,3.6-13,7.1-17.5,10.3c-4.4,3.3-9.2,7.6-14.1,13c7.9,1.9,15.2,4.2,21.8,6.8
		c5.8,2.3,11.8,5.3,17.9,8.8c6.7,3.9,12.6,8,17.5,12.3C170.8,117.5,175.5,122.7,180.4,128.9z"/>
</g>
<g id="XMLID_14_">
	<linearGradient id="XMLID_91_" gradientUnits="userSpaceOnUse" x1="210.6667" y1="104.3681" x2="265.7586" y2="104.3681">
		<stop  offset="0" style="stop-color:#1B1464"/>
		<stop  offset="1" style="stop-color:#0000FF"/>
	</linearGradient>
	<linearGradient id="XMLID_92_" gradientUnits="userSpaceOnUse" x1="210.1667" y1="104.3681" x2="266.2586" y2="104.3681">
		<stop  offset="0" style="stop-color:#1B1464"/>
		<stop  offset="1" style="stop-color:#0000FF"/>
	</linearGradient>
	<path id="XMLID_15_" class="st7" d="M265.3,73.4c0.3,0.3,0.5,0.5,0.5,0.8c0,0.5-0.3,0.8-1,0.8c-0.3,0-0.5-0.1-0.8-0.2
		c-1.3-0.6-2.3-1-3-1c-1.7,0-3.7,1.7-5.8,5.2c-7.8,12.7-13.4,29.5-17,50.6c0.7-0.7,1.7-1.8,3-3.3c0.7-0.9,1.3-1.3,1.6-1.3
		c0.8,0,0.8,0.4,0.2,1.3c-2.7,3.8-4.5,7.8-5.4,12.1c-0.3,1-0.8,1.6-1.3,1.6c-0.3,0-0.6-0.1-0.9-0.4c-1.4-1-2.2-1.5-2.4-1.7
		c-0.6-0.5-0.8-1.3-0.8-2.2c0-0.5,0.1-1,0.2-1.7c1.2-6.5,2.2-11.4,3-14.6c-2.8,4-5.9,7.9-9.4,11.9c-3.5,4-6,6.5-7.6,7.5
		c-1.2,0.8-2.1,1.2-2.7,1.2c-0.5,0-1.3-0.4-2.3-1.2c-1.8-1.1-2.8-2.4-2.8-3.9c0-0.3,0-0.5,0.1-0.8c0.6-4.2,2.5-9.1,5.6-14.6
		s6.8-10.2,10.9-14c1.3-1.2,2.5-1.8,3.6-1.8c1.1,0.1,3.1,1.4,5.9,4c0.3,0.2,0.4,0.5,0.4,0.7c0,0.5-0.3,0.7-0.9,0.7
		c-0.2,0-0.4,0-0.6-0.1c-2-0.8-3.6-0.8-4.8,0.1c-2.7,2-5.6,5.4-8.8,10.3c-3.7,5.6-5.9,10.7-6.5,15.2c-0.1,1.1,0.1,1.6,0.8,1.6
		c0.9,0,2.1-0.7,3.4-2c3.1-3.1,6.5-6.9,10.1-11.6c3.7-4.8,6.1-8.5,7.1-10.9c0.6-1.4,1.1-2.7,1.4-3.9c2.9-10.4,6.2-19.3,9.8-26.6
		c2.8-5.8,5.3-9.6,7.4-11.6c0.8-0.8,1.6-1.1,2.3-1.1c0.8,0,1.8,0.5,3,1.4C262.4,71.1,263.8,72.2,265.3,73.4z"/>
	<linearGradient id="XMLID_93_" gradientUnits="userSpaceOnUse" x1="247.0138" y1="121.4838" x2="277.437" y2="121.4838">
		<stop  offset="0" style="stop-color:#1B1464"/>
		<stop  offset="1" style="stop-color:#0000FF"/>
	</linearGradient>
	<linearGradient id="XMLID_94_" gradientUnits="userSpaceOnUse" x1="246.5138" y1="121.4838" x2="277.937" y2="121.4838">
		<stop  offset="0" style="stop-color:#1B1464"/>
		<stop  offset="1" style="stop-color:#0000FF"/>
	</linearGradient>
	<path id="XMLID_17_" class="st8" d="M276.8,108.5c-0.7,1.6-1.5,3.5-2.4,5.7c0.2,0.6,0.8,1.5,1.9,2.9c0.2,0.3,0.2,0.6-0.1,0.8
		c-0.3,0.3-0.7,0.4-1.1,0.4c-0.7,0-1.3-0.3-1.8-0.9c-1.9,4.2-4,8.5-6.3,12.8c-2.5,4.6-4.3,7.5-5.3,8.6c-0.9,0.9-1.9,1.4-2.8,1.4
		c-0.9,0-1.7-0.4-2.3-1.1c-1.1,0.5-1.8,0.7-2.3,0.7c-1,0-1.7-0.9-2.3-2.6c-0.7-2.4-1.1-5.9-1.1-10.4c0-6.4,0.6-11.2,1.7-14.3
		c-0.6,0.6-1.8,1.8-3.6,3.7c-0.3,0.3-0.7,0.5-1.1,0.5c-0.5,0-0.8-0.2-0.8-0.7c0-0.3,0.1-0.6,0.4-0.9c1.7-2.3,3.9-5.3,6.6-9.1
		c0.7-1,1.4-1.5,2.2-1.5c0.8,0,2.1,0.7,3.9,2c0.4,0.3,0.6,0.6,0.6,1c0,0.7-0.5,1.2-1.5,1.6c-2.5,5.3-3.7,11.3-3.7,17.9
		c0,3.4,0.4,6.3,1.2,8.5c0.3,0.9,0.7,1.4,1.3,1.4c0.5,0,1.2-0.5,1.9-1.4c2.2-3,4.3-6.7,6.4-11.1c1.9-3.9,3.1-7.1,3.8-9.4
		c-0.4-0.6-0.6-1.5-0.6-2.6c0-1.9,0.6-4.5,1.9-7.7c0.5-1.3,1.2-2,2.1-2c0.5,0,1.5,0.4,3,1.3c0.7,0.4,1.1,1,1.1,1.7
		C277.4,106.3,277.2,107.2,276.8,108.5z"/>
	<linearGradient id="XMLID_95_" gradientUnits="userSpaceOnUse" x1="277.3101" y1="121.7165" x2="300.4131" y2="121.7165">
		<stop  offset="0" style="stop-color:#1B1464"/>
		<stop  offset="1" style="stop-color:#0000FF"/>
	</linearGradient>
	<linearGradient id="XMLID_96_" gradientUnits="userSpaceOnUse" x1="276.8101" y1="121.7165" x2="300.9131" y2="121.7165">
		<stop  offset="0" style="stop-color:#1B1464"/>
		<stop  offset="1" style="stop-color:#0000FF"/>
	</linearGradient>
	<path id="XMLID_19_" class="st9" d="M300,127c-6.9,8.8-11.7,13.2-14.5,13.2c-1.3,0-3-0.9-5-2.8c-2.1-1-3.2-2.3-3.2-4
		c0-0.3,0-0.6,0.1-1c0.5-3.9,1.5-8.1,3.1-12.8c-1-0.5-1.6-1-1.6-1.5c0-0.4,0.3-0.6,0.9-0.6c0.5,0,0.9,0.1,1.4,0.4
		c2.5-5.6,4.8-9.6,6.8-12c1.3-1.6,2.5-2.4,3.5-2.4c0.5,0,1.7,0.4,3.6,1.2c-0.1-0.8,0.1-1.3,0.7-1.5c0,0,0.7,0,2,0
		c1.2,0,1.8,0.2,1.8,0.6c0,0.1,0,0.3-0.1,0.7c-0.1,0.4-0.1,0.8-0.1,1.1c0,1,0,2.3,0,3.8c0,1.5,0,2.5,0,3c0,3.5-1,5.9-2.9,7.3
		c-1.7,1.3-3.7,1.9-5.9,1.9c-1.2,0-3.1-0.3-5.8-0.9c-0.5,0.9-1,2.6-1.6,5.1c-0.8,3.2-1.2,6.1-1.1,8.5c0,1.5,0.5,2.2,1.4,2.2
		c0.3,0,0.8-0.1,1.3-0.3c3.3-1.2,7.8-4.7,13.7-10.6c0.4-0.4,0.7-0.6,1.1-0.6c0.5,0,0.8,0.3,0.8,0.8C300.4,126.3,300.3,126.7,300,127
		z M295,108.3c0-1.1-0.2-1.7-0.7-1.7c-0.3,0-0.8,0.2-1.4,0.7c-2.8,2.2-5.2,6.1-7.3,11.7c0.6,0.1,1.6,0.2,3,0.3
		c2.3,0.1,4-0.4,5.1-1.6c0.8-0.8,1.3-2.2,1.4-4.2C295.1,115,295,113.2,295,108.3z"/>
	<linearGradient id="XMLID_97_" gradientUnits="userSpaceOnUse" x1="302.148" y1="121.9492" x2="335.5332" y2="121.9492">
		<stop  offset="0" style="stop-color:#1B1464"/>
		<stop  offset="1" style="stop-color:#0000FF"/>
	</linearGradient>
	<linearGradient id="XMLID_98_" gradientUnits="userSpaceOnUse" x1="301.648" y1="121.9492" x2="336.0332" y2="121.9492">
		<stop  offset="0" style="stop-color:#1B1464"/>
		<stop  offset="1" style="stop-color:#0000FF"/>
	</linearGradient>
	<path id="XMLID_22_" class="st10" d="M335.4,124c-1.7,2.6-3.9,6.3-6.6,11.2c-0.5,1.3-1,2.5-1.5,3.8c-0.4,0.9-0.9,1.3-1.6,1.3
		c-0.5,0-1.3-0.2-2.2-0.6c-1.1-0.5-1.7-0.9-1.7-1.4c0-0.2,0.2-0.6,0.6-1.3c1.8-3.7,3.5-8.4,4.9-13.9c1.6-5.8,2.2-10.3,2-13.4
		c-0.1-1.2-0.3-1.9-0.8-1.9c-0.4,0-0.9,0.4-1.7,1.1c-7.1,6.9-13.3,16.2-18.4,27.8c-0.6,1.4-1.4,2.2-2.3,2.2c-0.6,0-1.7-0.4-3.1-1.1
		c-0.6-0.3-0.9-0.5-0.9-0.7c0-0.1,0.2-0.5,0.5-1.2c1.6-3.6,3.3-8.1,4.9-13.6c1.7-6,2.7-10.6,2.9-13.9c0.1-1,0-1.5-0.1-1.5
		c0,0-0.4,0.4-1.2,1.1c-0.8,0.8-1.8,1.7-3.2,3c-0.3,0.3-0.5,0.4-0.8,0.4c-0.4,0-0.6-0.2-0.6-0.5c0-0.2,0.1-0.5,0.4-0.8
		c1.2-1.6,2.8-3.5,4.8-5.8c0.4-0.5,0.9-0.7,1.3-0.7c0.7,0,1.3,0.5,1.8,1.5c2.3,0.7,3.4,1.7,3.2,3.1c-0.3,3.1-1.9,8.7-4.8,16.8
		c1.9-3.6,4.6-7.7,8.3-12.2c3.6-4.5,6.3-7.2,8-8c0.9-0.4,1.5-0.6,1.9-0.6c0.4,0,1,0.3,1.8,0.9c2.3,0.8,3.5,2.2,3.5,4.1
		c0,2-0.5,5.1-1.4,9.5c-0.8,3.6-1.5,6.4-2.1,8.4c0.8-1,1.9-2.4,3.1-4.1c0.2-0.3,0.5-0.4,0.7-0.4c0.4,0,0.6,0.3,0.6,0.8
		C335.5,123.7,335.5,123.8,335.4,124z"/>
	<linearGradient id="XMLID_99_" gradientUnits="userSpaceOnUse" x1="340.6531" y1="111.921" x2="364.8554" y2="111.921">
		<stop  offset="0" style="stop-color:#1B1464"/>
		<stop  offset="1" style="stop-color:#0000FF"/>
	</linearGradient>
	<linearGradient id="XMLID_100_" gradientUnits="userSpaceOnUse" x1="340.1531" y1="111.921" x2="365.3554" y2="111.921">
		<stop  offset="0" style="stop-color:#1B1464"/>
		<stop  offset="1" style="stop-color:#0000FF"/>
	</linearGradient>
	<path id="XMLID_24_" class="st11" d="M363.7,85.1c0.8,0.4,1.2,0.9,1.2,1.4c0,0.4-0.3,0.6-0.8,0.6c-0.1,0-0.3,0-0.5-0.1
		c-0.2,0-0.4-0.1-0.5-0.1c-1.1,0-2.4,1.2-3.9,3.5c-1.4,2.1-3.2,6.6-5.6,13.6c-0.2,0.6-0.3,1-0.3,1.1c0.1,0.2,0.5,0.3,1.1,0.3
		c1.7,0.1,3.9,0.1,6.7-0.2c1-0.1,1.4,0.3,1.4,1.2c0,0.6-0.4,1-1.1,1.1c-0.6,0.1-3.7,0.3-9.4,0.8c-3.4,9.9-5.4,18.3-6.2,25.1
		c0,0.4,0,0.7,0,1c0,1,0.2,1.4,0.7,1.4c0.8,0,3.1-1.8,6.9-5.5c0.5-0.5,0.9-0.7,1.3-0.7c0.4,0,0.6,0.2,0.7,0.5c0.1,0.3,0,0.7-0.4,1.2
		c-2.3,3-4.5,5.6-6.7,7.7c-0.9,0.9-1.7,1.3-2.3,1.3c-0.6,0-1.6-0.5-2.9-1.5c-1.6-0.4-2.4-1.3-2.4-2.5c0-0.2,0-0.4,0.1-0.7
		c1-7.3,3.1-16.2,6.1-26.9c-1.5-0.2-2.9-0.4-4.1-0.6c-0.5-0.1-0.8-0.4-0.8-1c0-0.6,0.3-1,0.8-1.2c0.6-0.1,1.6-0.5,3.1-0.9
		c0.9-0.3,1.8-0.7,2.7-1.3c3-9.3,5.4-15.4,7.1-18.2c1-1.6,2-2.4,3.2-2.4C360,83.4,361.6,83.9,363.7,85.1z"/>
	<linearGradient id="XMLID_101_" gradientUnits="userSpaceOnUse" x1="361.0066" y1="122.7109" x2="392.9954" y2="122.7109">
		<stop  offset="0" style="stop-color:#1B1464"/>
		<stop  offset="1" style="stop-color:#0000FF"/>
	</linearGradient>
	<linearGradient id="XMLID_102_" gradientUnits="userSpaceOnUse" x1="360.5066" y1="122.7109" x2="393.4954" y2="122.7109">
		<stop  offset="0" style="stop-color:#1B1464"/>
		<stop  offset="1" style="stop-color:#0000FF"/>
	</linearGradient>
	<path id="XMLID_26_" class="st12" d="M392.3,108.4c-3.8,7-6.6,15.1-8.4,24.5c0.8-1.4,1.7-3.1,2.9-5.3c0.1-0.4,0.4-0.6,0.7-0.6
		c0.4,0,0.6,0.3,0.6,0.8c0,0.2,0,0.4-0.1,0.6c-1.8,4.1-3,7.3-3.6,9.5c-0.3,1.4-0.8,2.1-1.4,2.1c-0.6,0-1.7-0.6-3.3-1.7
		c-0.9-0.6-1.2-1.7-0.9-3.3c1.2-6.1,2.6-11.5,4.3-16c-5.4,8.9-10,15.4-13.7,19.6c-0.8,0.9-1.7,1.4-2.7,1.4c-0.8,0-1.7-0.3-2.8-1
		c-1.9-0.3-2.9-1.4-2.9-3c0-0.3,0-0.6,0.1-1c0.7-8.1,2.2-14.8,4.4-20.1c-0.5,0.5-1.2,1.1-2.2,2c-0.4,0.3-0.6,0.4-0.8,0.3
		c-0.2-0.2-0.2-0.5,0.1-1c1.5-2.2,2.4-3.7,2.7-4.4c0.9-2.2,1.8-3.9,2.8-5.1c0.5-0.6,1-0.9,1.6-0.9c0.8,0,1.9,0.5,3.3,1.4
		c0.4,0.3,0.6,0.5,0.6,0.8l-0.9,1.4c-1.4,2.1-2.9,5.9-4.5,11.3c-1.7,5.9-2.6,10.6-2.6,14.3c0,1.2,0.3,1.8,0.8,1.8
		c0.5,0,1.2-0.5,2.2-1.6c2.2-2.3,5.3-6.7,9.4-13.1c3.6-5.7,5.8-9.4,6.6-11.1c1.3-2.9,2.3-4.6,3.1-5.1c0.5-0.3,1-0.5,1.4-0.5
		c0.4,0,1.2,0.3,2.3,0.9c1.1,0.6,1.7,1,1.7,1.3c0,0.1-0.1,0.2-0.3,0.3C392.5,108.1,392.4,108.2,392.3,108.4z"/>
	<linearGradient id="XMLID_103_" gradientUnits="userSpaceOnUse" x1="394.489" y1="121.8434" x2="421.1338" y2="121.8434">
		<stop  offset="0" style="stop-color:#1B1464"/>
		<stop  offset="1" style="stop-color:#0000FF"/>
	</linearGradient>
	<linearGradient id="XMLID_104_" gradientUnits="userSpaceOnUse" x1="393.989" y1="121.8434" x2="421.6338" y2="121.8434">
		<stop  offset="0" style="stop-color:#1B1464"/>
		<stop  offset="1" style="stop-color:#0000FF"/>
	</linearGradient>
	<path id="XMLID_28_" class="st13" d="M421.1,107.2c0,3.7-0.5,7.2-1.5,10.6c-0.3,1-0.7,1.5-1.3,1.5c-0.4,0-1.3-0.6-2.6-1.7
		c-0.7-0.6-0.8-1.4-0.5-2.4c0.8-2.6,1.2-4.6,1.2-6.2c0-0.5-0.1-0.8-0.3-0.8c-0.3,0-0.9,0.5-1.7,1.5c-5.9,7.6-10.3,16.2-13.2,25.7
		c-0.9,3-1.7,4.5-2.4,4.5c-0.3,0-1.4-0.5-3.3-1.5c-1-0.5-1.3-1.4-1-2.8c2.2-9.8,4.6-18,7.2-24.7c-2.1,2.2-3.4,3.7-4,4.5
		c-0.2,0.3-0.5,0.5-0.9,0.5c-0.5,0-0.7-0.2-0.7-0.6c0-0.3,0.1-0.5,0.3-0.8c1.4-1.7,3.2-4.2,5.5-7.6c0.7-1.2,1.4-1.9,2.1-1.9
		c0.5,0,1.5,0.4,3.1,1.2c0.9,0.5,1,1.1,0.4,1.8c-0.6,0.8-1.8,3.7-3.5,8.7c-1.6,4.8-2.8,8.6-3.4,11.3c3.8-8.5,8.2-16.1,13.1-22.6
		c0.9-1.2,1.7-1.9,2.2-1.9c0.5,0,1.2,0.3,2.1,1c1.2,0.1,1.9,0.3,2.2,0.6C420.9,105.6,421.1,106.2,421.1,107.2z"/>
	<linearGradient id="XMLID_105_" gradientUnits="userSpaceOnUse" x1="420.9645" y1="121.7165" x2="444.0676" y2="121.7165">
		<stop  offset="0" style="stop-color:#1B1464"/>
		<stop  offset="1" style="stop-color:#0000FF"/>
	</linearGradient>
	<linearGradient id="XMLID_106_" gradientUnits="userSpaceOnUse" x1="420.4645" y1="121.7165" x2="444.5676" y2="121.7165">
		<stop  offset="0" style="stop-color:#1B1464"/>
		<stop  offset="1" style="stop-color:#0000FF"/>
	</linearGradient>
	<path id="XMLID_30_" class="st14" d="M443.6,127c-6.9,8.8-11.7,13.2-14.5,13.2c-1.3,0-3-0.9-5-2.8c-2.1-1-3.2-2.3-3.2-4
		c0-0.3,0-0.6,0.1-1c0.5-3.9,1.5-8.1,3.1-12.8c-1-0.5-1.6-1-1.6-1.5c0-0.4,0.3-0.6,0.9-0.6c0.5,0,0.9,0.1,1.4,0.4
		c2.5-5.6,4.8-9.6,6.8-12c1.3-1.6,2.5-2.4,3.5-2.4c0.5,0,1.7,0.4,3.6,1.2c-0.1-0.8,0.1-1.3,0.7-1.5c0,0,0.7,0,2,0
		c1.2,0,1.8,0.2,1.8,0.6c0,0.1,0,0.3-0.1,0.7c-0.1,0.4-0.1,0.8-0.1,1.1c0,1,0,2.3,0,3.8c0,1.5,0,2.5,0,3c0,3.5-1,5.9-2.9,7.3
		c-1.8,1.3-3.7,1.9-5.9,1.9c-1.2,0-3.1-0.3-5.8-0.9c-0.5,0.9-1,2.6-1.6,5.1c-0.8,3.2-1.2,6.1-1.1,8.5c0,1.5,0.5,2.2,1.4,2.2
		c0.3,0,0.8-0.1,1.3-0.3c3.3-1.2,7.8-4.7,13.7-10.6c0.4-0.4,0.7-0.6,1.1-0.6c0.5,0,0.8,0.3,0.8,0.8
		C444.1,126.3,443.9,126.7,443.6,127z M438.7,108.3c0-1.1-0.2-1.7-0.7-1.7c-0.3,0-0.8,0.2-1.4,0.7c-2.8,2.2-5.2,6.1-7.3,11.7
		c0.6,0.1,1.6,0.2,3,0.3c2.3,0.1,4-0.4,5.1-1.6c0.8-0.8,1.3-2.2,1.4-4.2C438.7,115,438.7,113.2,438.7,108.3z"/>
	<linearGradient id="XMLID_107_" gradientUnits="userSpaceOnUse" x1="430.1549" y1="101.3773" x2="505.6892" y2="101.3773">
		<stop  offset="0" style="stop-color:#1B1464"/>
		<stop  offset="1" style="stop-color:#0000FF"/>
	</linearGradient>
	<linearGradient id="XMLID_108_" gradientUnits="userSpaceOnUse" x1="429.6549" y1="101.3773" x2="506.1892" y2="101.3773">
		<stop  offset="0" style="stop-color:#1B1464"/>
		<stop  offset="1" style="stop-color:#0000FF"/>
	</linearGradient>
	<path id="XMLID_33_" class="st15" d="M505.6,67.2c0.1,0.3,0.1,0.5,0.1,0.7c0,0.8-0.5,1.4-1.5,1.7c-0.1,0-1,0.2-2.9,0.5
		c-5,0.7-10.1,1.3-15.4,1.7c-2.2,4.8-11.1,30.4-14.3,41.1c-3,9.8-5.2,17.9-6.6,24.5c-0.5,2.1-1.2,3.2-2.1,3.2
		c-0.6,0-1.8-0.3-3.6-0.9c-0.6-0.2-1-0.6-1.1-1.1c0.1,0.6,0.1-0.3,0.1-2.6c0-4.1,0.7-7.9,2-11.3c0.5-1.3,1.1-1.9,1.7-1.9
		c0.2,0,0.5,0.1,1,0.2c0.5,0.1,0.9,0.2,1.2,0.2c0.8-2.9,2.6-8.6,5.4-17.1c3.2-9.6,11.1-32.7,11.4-33.7c-4.3,0.3-8.7,1-13,2
		c-4.8,1.2-29.2,8.6-30.7,10c-1.7,1.5-2.5,3-2.5,4.5c0,1.6,0.9,4.1,2.8,7.5c0.2,0.4,0.3,0.7,0.3,1c0,0.7-0.3,1.1-1,1.1
		c-0.5,0-0.9-0.3-1.2-0.8c-2.2-3.2-3.7-5.7-4.4-7.4c-0.5-1.2-0.8-3-1-5.4c-0.3-3.4,2.5-6,8.5-7.6c7.8-2.1,36.8-9.7,44.7-10.4
		c0.9-1.8,1.6-2.8,2-2.8c0.6,0,1.7,0.7,3.3,2.1c0.7,0,3-0.3,6.8-0.8c0.7-0.1,1.4-0.6,2.1-1.5c0.6-0.8,2.1-1.3,4.4-1.4
		c1.3-0.1,2.1,0.4,2.6,1.4C504.8,63.9,505.1,65.1,505.6,67.2z"/>
	<linearGradient id="XMLID_109_" gradientUnits="userSpaceOnUse" x1="489.3774" y1="121.8434" x2="516.0221" y2="121.8434">
		<stop  offset="0" style="stop-color:#1B1464"/>
		<stop  offset="1" style="stop-color:#0000FF"/>
	</linearGradient>
	<linearGradient id="XMLID_110_" gradientUnits="userSpaceOnUse" x1="488.8774" y1="121.8434" x2="516.5221" y2="121.8434">
		<stop  offset="0" style="stop-color:#1B1464"/>
		<stop  offset="1" style="stop-color:#0000FF"/>
	</linearGradient>
	<path id="XMLID_35_" class="st16" d="M516,107.2c0,3.7-0.5,7.2-1.5,10.6c-0.3,1-0.7,1.5-1.3,1.5c-0.4,0-1.3-0.6-2.6-1.7
		c-0.7-0.6-0.8-1.4-0.5-2.4c0.8-2.6,1.2-4.6,1.2-6.2c0-0.5-0.1-0.8-0.3-0.8c-0.3,0-0.9,0.5-1.7,1.5c-5.9,7.6-10.3,16.2-13.2,25.7
		c-0.9,3-1.7,4.5-2.4,4.5c-0.3,0-1.4-0.5-3.3-1.5c-1-0.5-1.3-1.4-1-2.8c2.2-9.8,4.6-18,7.2-24.7c-2.1,2.2-3.4,3.7-4,4.5
		c-0.2,0.3-0.5,0.5-0.9,0.5c-0.5,0-0.7-0.2-0.7-0.6c0-0.3,0.1-0.5,0.3-0.8c1.4-1.7,3.2-4.2,5.5-7.6c0.7-1.2,1.4-1.9,2.1-1.9
		c0.5,0,1.5,0.4,3.1,1.2c0.9,0.5,1,1.1,0.4,1.8c-0.6,0.8-1.8,3.7-3.5,8.7c-1.6,4.8-2.8,8.6-3.4,11.3c3.8-8.5,8.2-16.1,13.1-22.6
		c0.9-1.2,1.7-1.9,2.2-1.9c0.5,0,1.2,0.3,2.1,1c1.2,0.1,1.9,0.3,2.2,0.6C515.8,105.6,516,106.2,516,107.2z"/>
	<linearGradient id="XMLID_111_" gradientUnits="userSpaceOnUse" x1="513.8641" y1="121.9911" x2="546.3735" y2="121.9911">
		<stop  offset="0" style="stop-color:#1B1464"/>
		<stop  offset="1" style="stop-color:#0000FF"/>
	</linearGradient>
	<linearGradient id="XMLID_112_" gradientUnits="userSpaceOnUse" x1="513.3641" y1="121.9911" x2="546.8735" y2="121.9911">
		<stop  offset="0" style="stop-color:#1B1464"/>
		<stop  offset="1" style="stop-color:#0000FF"/>
	</linearGradient>
	<path id="XMLID_37_" class="st17" d="M546,110.9c-2.6,7.2-4.4,13.2-5.4,18.1c0.4-0.4,1-1,1.7-1.8c0.7-0.8,1.1-1.3,1.3-1.4
		c0.4-0.5,0.8-0.8,1.3-0.8c0.4,0,0.6,0.2,0.6,0.6c0,0.3-0.1,0.6-0.3,0.9c-2.7,3.9-4.4,7.9-5.3,11.9c-0.3,1.1-0.6,1.7-1.1,1.7
		c-0.5,0-1.4-0.5-2.7-1.4c-0.8-0.5-1.2-0.9-1.3-1.3c-0.1-0.3-0.1-0.9,0-1.9c1.2-7.2,2.7-13.1,4.4-17.9c-2.5,4-5.8,8.4-10,13.2
		c-3.7,4.2-6.4,6.9-8,8c-1.2,0.8-2.1,1.2-2.7,1.2c-0.5,0-1.3-0.4-2.3-1.2c-1.5-0.9-2.2-2.1-2.2-3.7c0-0.3,0-0.7,0.1-1.1
		c0.5-4.2,2.3-9,5.5-14.6c3.2-5.5,6.8-10.2,10.9-14c1.3-1.2,2.5-1.8,3.6-1.8c1,0.1,2.9,1.4,5.8,4c0.3,0.2,0.4,0.5,0.4,0.7
		c0,0.5-0.3,0.7-0.9,0.7c-0.2,0-0.4,0-0.6-0.1c-2-0.8-3.6-0.8-4.8,0.1c-2.7,1.9-5.6,5.4-8.8,10.3c-3.7,5.6-6,10.7-6.7,15.2
		c0,0.2,0,0.4,0,0.6c0,0.7,0.3,1.1,0.8,1.1c1,0,2.1-0.7,3.4-2c3.2-3.1,6.5-6.9,10.2-11.6c3.7-4.8,6.1-8.5,7.1-10.9
		c0.8-1.8,1.3-3.1,1.5-3.8c0.4-1.3,0.8-1.9,1.2-1.9c0.4,0,1.4,0.6,3,1.7c0.6,0.5,1,0.9,1.1,1.3C546.4,109.4,546.3,110,546,110.9z"/>
	<linearGradient id="XMLID_113_" gradientUnits="userSpaceOnUse" x1="549.365" y1="121.4838" x2="579.7882" y2="121.4838">
		<stop  offset="0" style="stop-color:#1B1464"/>
		<stop  offset="1" style="stop-color:#0000FF"/>
	</linearGradient>
	<linearGradient id="XMLID_114_" gradientUnits="userSpaceOnUse" x1="548.865" y1="121.4838" x2="580.2882" y2="121.4838">
		<stop  offset="0" style="stop-color:#1B1464"/>
		<stop  offset="1" style="stop-color:#0000FF"/>
	</linearGradient>
	<path id="XMLID_39_" class="st18" d="M579.2,108.5c-0.7,1.6-1.5,3.5-2.4,5.7c0.2,0.6,0.8,1.5,1.9,2.9c0.2,0.3,0.2,0.6-0.1,0.8
		c-0.3,0.3-0.7,0.4-1.1,0.4c-0.7,0-1.3-0.3-1.8-0.9c-1.9,4.2-4,8.5-6.3,12.8c-2.5,4.6-4.3,7.5-5.3,8.6c-0.9,0.9-1.9,1.4-2.8,1.4
		c-0.9,0-1.7-0.4-2.3-1.1c-1.1,0.5-1.8,0.7-2.3,0.7c-1,0-1.8-0.9-2.3-2.6c-0.7-2.4-1.1-5.9-1.1-10.4c0-6.4,0.6-11.2,1.7-14.3
		c-0.6,0.6-1.8,1.8-3.6,3.7c-0.3,0.3-0.7,0.5-1.1,0.5c-0.5,0-0.8-0.2-0.8-0.7c0-0.3,0.1-0.6,0.4-0.9c1.7-2.3,3.9-5.3,6.6-9.1
		c0.7-1,1.4-1.5,2.2-1.5c0.8,0,2.1,0.7,3.9,2c0.4,0.3,0.6,0.6,0.6,1c0,0.7-0.5,1.2-1.5,1.6c-2.5,5.3-3.7,11.3-3.7,17.9
		c0,3.4,0.4,6.3,1.2,8.5c0.3,0.9,0.7,1.4,1.3,1.4c0.5,0,1.2-0.5,1.9-1.4c2.2-3,4.3-6.7,6.4-11.1c1.9-3.9,3.1-7.1,3.8-9.4
		c-0.4-0.6-0.6-1.5-0.6-2.6c0-1.9,0.6-4.5,1.9-7.7c0.5-1.3,1.2-2,2.1-2c0.5,0,1.5,0.4,3,1.3c0.7,0.4,1.1,1,1.1,1.7
		C579.8,106.3,579.6,107.2,579.2,108.5z"/>
	<linearGradient id="XMLID_115_" gradientUnits="userSpaceOnUse" x1="579.6613" y1="121.7165" x2="602.7643" y2="121.7165">
		<stop  offset="0" style="stop-color:#1B1464"/>
		<stop  offset="1" style="stop-color:#0000FF"/>
	</linearGradient>
	<linearGradient id="XMLID_116_" gradientUnits="userSpaceOnUse" x1="579.1613" y1="121.7165" x2="603.2643" y2="121.7165">
		<stop  offset="0" style="stop-color:#1B1464"/>
		<stop  offset="1" style="stop-color:#0000FF"/>
	</linearGradient>
	<path id="XMLID_41_" class="st19" d="M602.3,127c-6.9,8.8-11.7,13.2-14.5,13.2c-1.3,0-3-0.9-5-2.8c-2.1-1-3.2-2.3-3.2-4
		c0-0.3,0-0.6,0.1-1c0.5-3.9,1.5-8.1,3.1-12.8c-1-0.5-1.6-1-1.6-1.5c0-0.4,0.3-0.6,0.9-0.6c0.5,0,0.9,0.1,1.4,0.4
		c2.5-5.6,4.8-9.6,6.8-12c1.3-1.6,2.5-2.4,3.5-2.4c0.5,0,1.7,0.4,3.6,1.2c-0.1-0.8,0.1-1.3,0.7-1.5c0,0,0.7,0,2,0
		c1.2,0,1.8,0.2,1.8,0.6c0,0.1,0,0.3-0.1,0.7c-0.1,0.4-0.1,0.8-0.1,1.1c0,1,0,2.3,0,3.8c0,1.5,0,2.5,0,3c0,3.5-1,5.9-2.9,7.3
		c-1.8,1.3-3.7,1.9-5.9,1.9c-1.2,0-3.1-0.3-5.8-0.9c-0.5,0.9-1,2.6-1.6,5.1c-0.8,3.2-1.2,6.1-1.1,8.5c0,1.5,0.5,2.2,1.4,2.2
		c0.3,0,0.8-0.1,1.3-0.3c3.3-1.2,7.8-4.7,13.7-10.6c0.4-0.4,0.7-0.6,1.1-0.6c0.5,0,0.8,0.3,0.8,0.8
		C602.8,126.3,602.6,126.7,602.3,127z M597.4,108.3c0-1.1-0.2-1.7-0.7-1.7c-0.3,0-0.8,0.2-1.4,0.7c-2.8,2.2-5.2,6.1-7.3,11.7
		c0.6,0.1,1.6,0.2,3,0.3c2.3,0.1,4-0.4,5.1-1.6c0.8-0.8,1.3-2.2,1.4-4.2C597.4,115,597.4,113.2,597.4,108.3z"/>
	<linearGradient id="XMLID_117_" gradientUnits="userSpaceOnUse" x1="606.4879" y1="104.2827" x2="640" y2="104.2827">
		<stop  offset="0" style="stop-color:#1B1464"/>
		<stop  offset="1" style="stop-color:#0000FF"/>
	</linearGradient>
	<linearGradient id="XMLID_118_" gradientUnits="userSpaceOnUse" x1="605.9879" y1="104.2827" x2="640.5" y2="104.2827">
		<stop  offset="0" style="stop-color:#1B1464"/>
		<stop  offset="1" style="stop-color:#0000FF"/>
	</linearGradient>
	<path id="XMLID_44_" class="st20" d="M639.4,73.4c0.4,0.3,0.6,0.6,0.6,0.9c0,0.5-0.3,0.8-1,0.8c-0.3,0-0.6-0.1-0.9-0.3
		c-1.3-0.6-2.3-1-2.9-1c-1.8,0-3.7,1.7-5.8,5.2c-7.7,12.5-13.1,28.6-16.4,48.4c-0.1,0.5-0.2,1.3-0.4,2.2c0.6-0.7,1.6-1.8,2.9-3.3
		c0.7-0.9,1.3-1.3,1.6-1.3c0.7,0,0.8,0.4,0.2,1.3c-2.7,3.9-4.5,7.9-5.4,12.1c-0.3,1-0.7,1.6-1.2,1.6c-0.2,0-0.5-0.1-0.9-0.4
		c-1.4-1-2.3-1.5-2.5-1.7c-0.6-0.6-0.8-1.3-0.8-2.2c0-0.5,0.1-1,0.2-1.7c3.3-18,7.5-33.3,12.7-45.9c3.9-9.5,7.4-15.7,10.5-18.5
		c0.8-0.8,1.7-1.2,2.5-1.1c0.8,0,1.7,0.5,3,1.4C636.7,71.1,638.1,72.2,639.4,73.4z"/>
</g>
</svg>
